# This file uses centimeters as units for non-parametric coordinates.

mtllib Fence2.mtl
g default
v -0.048926 2.753471 -2.556541
v 0.048926 2.753471 -2.556541
v 0.048926 2.625385 -2.778392
v -0.048926 2.625385 -2.778392
v 0.123112 1.417611 1.797603
v 0.123112 -2.625385 -0.536622
v 0.123112 -2.753471 -0.314770
v 0.123112 0.905267 1.797603
v 0.048926 -2.625385 1.663668
v 0.048926 -2.753471 1.441816
v 0.048926 2.625385 -1.663668
v 0.048926 2.753471 -1.441816
v 0.123112 -2.625385 -1.650830
v 0.123112 -2.753471 -1.428978
v 0.123112 2.625385 1.676506
v 0.123112 2.753471 1.454654
v 0.220964 2.753471 1.454654
v 0.220964 -2.625385 -1.650830
v 0.220964 0.905267 1.797603
v 0.220964 -2.753471 -0.314770
v 0.220964 -2.625385 -0.536622
v 0.220964 1.417611 1.797603
v -0.048926 -2.625385 1.663668
v -0.048926 2.753471 -1.441816
v 0.220964 -2.753471 -1.428978
v 0.220964 2.625385 1.676506
v 0.123112 2.625385 -2.493488
v 0.220964 2.625385 -2.493488
v 0.220964 2.753471 -2.715340
v 0.123112 2.753471 -2.715340
v -0.048926 -0.915095 1.797603
v -0.048926 -1.427440 1.797603
v 0.048926 -1.427440 1.797603
v 0.048926 -0.915095 1.797603
v 0.123112 -1.155311 1.797603
v 0.220964 -1.155311 1.797603
v 0.220964 -0.642967 1.797603
v 0.123112 -0.642967 1.797603
v -0.048926 2.625385 -1.663668
v 0.123112 2.625385 -1.605296
v 0.220964 2.625385 -1.605296
v 0.220964 2.753471 -1.827148
v 0.123112 2.753471 -1.827148
v -0.048926 2.625385 -0.542296
v 0.048926 2.625385 -0.542296
v -0.048926 2.753471 -0.320444
v 0.048926 2.753471 -0.320444
v 0.123112 2.625385 -0.594904
v 0.220964 2.625385 -0.594904
v 0.220964 2.753471 -0.816756
v 0.123112 2.753471 -0.816756
v 0.048926 1.346159 1.797603
v -0.048926 1.346159 1.797603
v -0.048926 0.833814 1.797603
v 0.048926 0.833814 1.797603
v -0.048926 2.625385 0.763240
v 0.048926 2.625385 0.763240
v -0.048926 2.753471 0.985091
v 0.048926 2.753471 0.985091
v 0.123112 2.625385 0.576437
v 0.220964 2.625385 0.576437
v 0.220964 2.753471 0.354586
v 0.123112 2.753471 0.354586
v -0.048926 -2.753471 1.441816
v 0.220964 -2.625385 0.653054
v 0.123112 -2.625385 0.653054
v 0.220964 -2.753471 0.874906
v 0.123112 -2.753471 0.874906
v 0.220964 -2.753471 -2.529047
v 0.220964 -2.625385 -2.750898
v 0.123112 -2.753471 -2.529047
v -0.048926 -2.625385 0.548943
v 0.048926 -2.625385 0.548943
v -0.048926 2.752683 -3.701753
v -0.048926 2.753471 -3.700388
v 0.048926 2.753471 -3.700388
v 0.048926 2.752683 -3.701753
v 0.123112 -2.625385 -2.750898
v 0.048926 -2.753471 0.327091
v 0.123112 1.044953 -3.701753
v 0.220964 1.044953 -3.701753
v -0.048926 -2.753471 0.327091
v 0.220964 0.532609 -3.701753
v 0.048926 2.243490 -3.701753
v -0.048926 2.243490 -3.701753
v 0.123112 0.532609 -3.701753
v 0.123112 -0.493441 -3.701753
v 0.220964 -0.493441 -3.701753
v 0.220964 -1.005785 -3.701753
v 0.123112 -1.005785 -3.701753
v 0.123112 -2.243490 -3.701753
v 0.220964 -2.243490 -3.701753
v 0.123112 -2.753471 -3.700388
v 0.220964 -2.753471 -3.700388
v -0.048926 -2.625385 -0.594904
v 0.048926 -2.625385 -0.594904
v 0.048926 -2.753471 -0.816756
v -0.048926 -2.753471 -0.816756
v 0.048926 0.555535 -3.701753
v -0.048926 0.555535 -3.701753
v -0.048926 1.067879 -3.701753
v 0.048926 1.067879 -3.701753
v -0.048926 -2.625385 -1.569446
v 0.048926 -2.625385 -1.569446
v 0.048926 -2.753471 -1.791297
v -0.048926 -2.753471 -1.791297
v 0.220964 -2.752683 -3.701753
v 0.123112 -2.752683 -3.701753
v 0.048926 -1.342400 -3.701753
v -0.048926 -1.342400 -3.701753
v -0.048926 -0.830056 -3.701753
v 0.048926 -0.830056 -3.701753
v -0.048926 -2.625385 -2.665219
v 0.048926 -2.625385 -2.665219
v 0.048926 -2.753471 -2.887071
v -0.048926 -2.753471 -2.887071
vt 0.375000 0.250000
vt 0.625000 0.250000
vt 0.625000 0.500000
vt 0.375000 0.500000
vt 0.125000 0.187912
vt 0.125000 0.000000
vt 0.375000 0.000000
vt 0.375000 0.170052
vt 0.625000 0.000000
vt 0.875000 0.000000
vt 0.875000 0.250000
vt 0.625000 0.250000
vt 0.125000 0.000000
vt 0.375000 0.000000
vt 0.375000 0.250000
vt 0.125000 0.250000
vt 0.375000 0.500000
vt 0.625000 0.500000
vt 0.625000 0.750000
vt 0.375000 0.750000
vt 0.625000 0.170052
vt 0.625000 0.000000
vt 0.875000 0.000000
vt 0.875000 0.187912
vt 0.375000 0.000000
vt 0.375000 0.250000
vt 0.625000 0.562088
vt 0.625000 0.750000
vt 0.375000 0.750000
vt 0.375000 0.562088
vt 0.625000 0.000000
vt 0.625000 0.250000
vt 0.875000 0.000000
vt 0.875000 0.250000
vt 0.375000 0.250000
vt 0.625000 0.250000
vt 0.625000 0.500000
vt 0.375000 0.500000
vt 0.497973 0.662908
vt 0.497973 0.684131
vt 0.502027 0.684131
vt 0.502027 0.662908
vt 0.505100 0.672858
vt 0.509153 0.672858
vt 0.509153 0.651635
vt 0.505100 0.651635
vt 0.625000 0.500000
vt 0.375000 0.500000
vt 0.375000 0.250000
vt 0.625000 0.250000
vt 0.625000 0.500000
vt 0.375000 0.500000
vt 0.375000 0.688368
vt 0.375000 0.500000
vt 0.625000 0.500000
vt 0.625000 0.688368
vt 0.375000 0.079491
vt 0.375000 0.250000
vt 0.125000 0.250000
vt 0.125000 0.061632
vt 0.875000 0.061632
vt 0.875000 0.250000
vt 0.625000 0.250000
vt 0.625000 0.079491
vt 0.375000 0.250000
vt 0.625000 0.250000
vt 0.625000 0.500000
vt 0.375000 0.500000
vt 0.502027 0.569236
vt 0.497973 0.569236
vt 0.497973 0.590459
vt 0.502027 0.590459
vt 0.375000 0.583269
vt 0.375000 0.500000
vt 0.625000 0.500000
vt 0.625000 0.583269
vt 0.509153 0.587500
vt 0.509153 0.566276
vt 0.505100 0.566276
vt 0.505100 0.587500
vt 0.375000 0.184591
vt 0.375000 0.250000
vt 0.125000 0.250000
vt 0.125000 0.166731
vt 0.875000 0.166731
vt 0.875000 0.250000
vt 0.625000 0.250000
vt 0.625000 0.184591
vt 0.375000 0.250000
vt 0.625000 0.250000
vt 0.625000 0.500000
vt 0.375000 0.500000
vt 0.125000 0.000000
vt 0.125000 0.250000
vt 0.625000 0.750000
vt 0.375000 0.750000
vt 0.625000 0.657861
vt 0.625000 0.750000
vt 0.375000 0.750000
vt 0.375000 0.657861
vt 0.625000 0.074280
vt 0.625000 0.000000
vt 0.875000 0.000000
vt 0.875000 0.092139
vt 0.125000 0.092139
vt 0.125000 0.000000
vt 0.375000 0.000000
vt 0.375000 0.074280
vt 0.625000 0.000000
vt 0.875000 0.000000
vt 0.875000 0.250000
vt 0.375000 0.000000
vt 0.375000 0.000000
vt 0.625000 0.000000
vt 0.375000 0.251538
vt 0.375000 0.250000
vt 0.625000 0.250000
vt 0.625000 0.251538
vt 0.625000 0.750000
vt 0.375000 0.750000
vt 0.125000 0.000000
vt 0.125000 0.250000
vt 0.875000 0.000000
vt 0.875000 0.250000
vt 0.625000 1.000000
vt 0.375000 1.000000
vt 0.375000 0.579409
vt 0.625000 0.579409
vt 0.125000 0.000000
vt 0.125000 0.250000
vt 0.875000 0.170591
vt 0.875000 0.250000
vt 0.625000 0.152731
vt 0.502027 0.239029
vt 0.502027 0.217936
vt 0.497973 0.217936
vt 0.497973 0.239029
vt 0.625000 0.750000
vt 0.375000 0.750000
vt 0.375000 0.152731
vt 0.125000 0.250000
vt 0.125000 0.170591
vt 0.375000 0.650911
vt 0.625000 0.650911
vt 0.875000 0.099089
vt 0.875000 0.250000
vt 0.625000 0.081229
vt 0.375000 0.081229
vt 0.125000 0.250000
vt 0.125000 0.099089
vt 0.625000 1.000000
vt 0.375000 1.000000
vt 0.375000 0.732250
vt 0.625000 0.732250
vt 0.375000 0.000000
vt 0.625000 0.000000
vt 0.375000 0.000000
vt 0.625000 0.000000
vt 0.625000 1.000000
vt 0.375000 1.000000
vt 0.625000 0.517750
vt 0.625000 0.750000
vt 0.375000 0.750000
vt 0.375000 0.517750
vt 0.509153 0.147063
vt 0.505100 0.147063
vt 0.505100 0.168287
vt 0.509153 0.168287
vt 0.502027 0.148013
vt 0.497973 0.148013
vt 0.497973 0.169237
vt 0.502027 0.169237
vt 0.625000 1.000000
vt 0.375000 1.000000
vt 0.626538 0.250000
vt 0.875000 0.000000
vt 0.875000 0.232250
vt 0.125000 0.232250
vt 0.125000 0.000000
vt 0.373462 0.250000
vt 0.625000 1.000000
vt 0.375000 1.000000
vt 0.375000 0.171657
vt 0.375000 0.000000
vt 0.625000 0.000000
vt 0.625000 0.171657
vt 0.875000 0.000000
vt 0.875000 0.153797
vt 0.125000 0.153797
vt 0.125000 0.000000
vt 0.625000 0.596203
vt 0.625000 0.750000
vt 0.375000 0.750000
vt 0.375000 0.596203
vt 0.625000 1.000000
vt 0.375000 1.000000
vt 0.509153 0.083336
vt 0.505100 0.083336
vt 0.505100 0.104559
vt 0.509153 0.104559
vt 0.875000 0.017750
vt 0.875000 0.250000
vt 0.626538 0.000000
vt 0.625000 1.000000
vt 0.375000 1.000000
vt 0.373462 0.000000
vt 0.125000 0.250000
vt 0.125000 0.017750
vt 0.502027 0.069391
vt 0.497973 0.069391
vt 0.497973 0.090615
vt 0.502027 0.090615
vt 0.375000 0.083444
vt 0.375000 0.000000
vt 0.625000 0.000000
vt 0.625000 0.083444
vt 0.875000 0.000000
vt 0.875000 0.065584
vt 0.625000 1.000000
vt 0.375000 1.000000
vt 0.125000 0.065584
vt 0.125000 0.000000
vt 0.625000 0.684416
vt 0.625000 0.750000
vt 0.375000 0.750000
vt 0.375000 0.684416
vt 0.625000 1.000000
vt 0.375000 1.000000
vt 0.509153 0.032064
vt 0.509153 0.010971
vt 0.505100 0.010971
vt 0.505100 0.032064
vt 0.625000 0.998462
vt 0.625000 1.000000
vt 0.375000 1.000000
vt 0.375000 0.998462
vn 0.000000 0.866025 -0.500000
vn 0.000000 0.866025 -0.500000
vn 0.000000 0.866025 -0.500000
vn 0.000000 0.866025 -0.500000
vn -1.000000 0.000000 0.000000
vn -1.000000 0.000000 0.000000
vn -1.000000 0.000000 0.000000
vn -1.000000 0.000000 0.000000
vn 1.000000 0.000000 0.000000
vn 1.000000 0.000000 0.000000
vn 1.000000 0.000000 0.000000
vn 1.000000 0.000000 0.000000
vn -1.000000 0.000000 0.000000
vn -1.000000 0.000000 0.000000
vn -1.000000 0.000000 0.000000
vn -1.000000 0.000000 0.000000
vn 0.000000 0.500000 -0.866025
vn 0.000000 0.500000 -0.866025
vn 0.000000 0.500000 -0.866025
vn 0.000000 0.500000 -0.866025
vn 1.000000 0.000000 0.000000
vn 1.000000 0.000000 0.000000
vn 1.000000 0.000000 0.000000
vn 1.000000 0.000000 0.000000
vn 0.000000 0.500000 0.866025
vn 0.000000 0.500000 0.866025
vn 0.000000 0.500000 0.866025
vn 0.000000 0.500000 0.866025
vn 0.000000 0.500000 -0.866025
vn 0.000000 0.500000 -0.866025
vn 0.000000 0.500000 -0.866025
vn 0.000000 0.500000 -0.866025
vn 0.000000 -0.500000 0.866025
vn 0.000000 -0.500000 0.866025
vn 0.000000 -0.500000 0.866025
vn 0.000000 -0.500000 0.866025
vn 1.000000 0.000000 0.000000
vn 1.000000 0.000000 0.000000
vn 1.000000 0.000000 0.000000
vn 1.000000 0.000000 0.000000
vn 0.000000 0.866026 0.500000
vn 0.000000 0.866026 0.500000
vn 0.000000 0.866026 0.500000
vn 0.000000 0.866026 0.500000
vn 0.000000 0.000000 1.000000
vn 0.000000 0.000000 1.000000
vn 0.000000 0.000000 1.000000
vn 0.000000 0.000000 1.000000
vn 0.000000 0.000000 1.000000
vn 0.000000 0.000000 1.000000
vn 0.000000 0.000000 1.000000
vn 0.000000 0.000000 1.000000
vn 0.000000 0.866026 -0.500000
vn 0.000000 0.866026 -0.500000
vn 0.000000 0.866026 -0.500000
vn 0.000000 0.866026 -0.500000
vn 0.000000 0.866026 0.500000
vn 0.000000 0.866026 0.500000
vn 0.000000 0.866026 0.500000
vn 0.000000 0.866026 0.500000
vn 0.000000 -0.500000 -0.866025
vn 0.000000 -0.500000 -0.866025
vn 0.000000 -0.500000 -0.866025
vn 0.000000 -0.500000 -0.866025
vn -1.000000 0.000000 0.000000
vn -1.000000 0.000000 0.000000
vn -1.000000 0.000000 0.000000
vn -1.000000 0.000000 0.000000
vn 1.000000 0.000000 0.000000
vn 1.000000 0.000000 0.000000
vn 1.000000 0.000000 0.000000
vn 1.000000 0.000000 0.000000
vn 0.000000 0.500000 0.866025
vn 0.000000 0.500000 0.866025
vn 0.000000 0.500000 0.866025
vn 0.000000 0.500000 0.866025
vn 0.000000 0.866026 0.500000
vn 0.000000 0.866026 0.500000
vn 0.000000 0.866026 0.500000
vn 0.000000 0.866026 0.500000
vn 0.000000 0.866026 -0.500000
vn 0.000000 0.866026 -0.500000
vn 0.000000 0.866026 -0.500000
vn 0.000000 0.866026 -0.500000
vn 0.000000 0.000000 1.000000
vn 0.000000 0.000000 1.000000
vn 0.000000 0.000000 1.000000
vn 0.000000 0.000000 1.000000
vn 0.000000 -0.500000 -0.866025
vn 0.000000 -0.500000 -0.866025
vn 0.000000 -0.500000 -0.866025
vn 0.000000 -0.500000 -0.866025
vn 0.000000 0.000000 1.000000
vn 0.000000 0.000000 1.000000
vn 0.000000 0.000000 1.000000
vn 0.000000 0.000000 1.000000
vn -1.000000 0.000000 0.000000
vn -1.000000 0.000000 0.000000
vn -1.000000 0.000000 0.000000
vn -1.000000 0.000000 0.000000
vn 1.000000 0.000000 0.000000
vn 1.000000 0.000000 0.000000
vn 1.000000 0.000000 0.000000
vn 1.000000 0.000000 0.000000
vn 0.000000 0.866026 0.500000
vn 0.000000 0.866026 0.500000
vn 0.000000 0.866026 0.500000
vn 0.000000 0.866026 0.500000
vn 0.000000 0.500000 0.866025
vn 0.000000 0.500000 0.866025
vn 0.000000 0.500000 0.866025
vn 0.000000 0.500000 0.866025
vn 0.000000 0.866026 -0.500000
vn 0.000000 0.866026 -0.500000
vn 0.000000 0.866026 -0.500000
vn 0.000000 0.866026 -0.500000
vn 0.000000 0.866026 0.500000
vn 0.000000 0.866026 0.500000
vn 0.000000 0.866026 0.500000
vn 0.000000 0.866026 0.500000
vn 0.000000 -0.500000 0.866025
vn 0.000000 -0.500000 0.866025
vn 0.000000 -0.500000 0.866025
vn 0.000000 -0.500000 0.866025
vn -1.000000 0.000000 0.000000
vn -1.000000 0.000000 0.000000
vn -1.000000 0.000000 0.000000
vn -1.000000 0.000000 0.000000
vn 0.000000 -0.500000 -0.866025
vn 0.000000 -0.500000 -0.866025
vn 0.000000 -0.500000 -0.866025
vn 0.000000 -0.500000 -0.866025
vn 0.000000 0.500000 -0.866026
vn 0.000000 0.500000 -0.866026
vn 0.000000 0.500000 -0.866026
vn 0.000000 0.500000 -0.866026
vn 1.000000 0.000000 0.000000
vn 1.000000 0.000000 0.000000
vn 1.000000 0.000000 0.000000
vn 1.000000 0.000000 0.000000
vn -1.000000 0.000000 0.000000
vn -1.000000 0.000000 0.000000
vn -1.000000 0.000000 0.000000
vn -1.000000 0.000000 0.000000
vn 0.000000 -0.500000 0.866025
vn 0.000000 -0.500000 0.866025
vn 0.000000 -0.500000 0.866025
vn 0.000000 -0.500000 0.866025
vn 1.000000 -0.000000 0.000000
vn 1.000000 -0.000000 0.000000
vn 1.000000 -0.000000 0.000000
vn 1.000000 -0.000000 0.000000
vn 0.000000 -0.500000 0.866025
vn 0.000000 -0.500000 0.866025
vn 0.000000 -0.500000 0.866025
vn 0.000000 -0.500000 0.866025
vn 0.000000 0.500000 0.866025
vn 0.000000 0.500000 0.866025
vn 0.000000 0.500000 0.866025
vn 0.000000 0.500000 0.866025
vn 0.000000 0.866026 -0.499999
vn 0.000000 0.866026 -0.499999
vn 0.000000 0.866026 -0.499999
vn 0.000000 0.866026 -0.499999
vn 0.000000 0.500000 -0.866025
vn 0.000000 0.500000 -0.866025
vn 0.000000 0.500000 -0.866025
vn 0.000000 0.500000 -0.866025
vn -1.000000 0.000000 0.000000
vn -1.000000 0.000000 0.000000
vn -1.000000 0.000000 0.000000
vn -1.000000 0.000000 0.000000
vn 1.000000 -0.000000 0.000000
vn 1.000000 -0.000000 0.000000
vn 1.000000 -0.000000 0.000000
vn 1.000000 -0.000000 0.000000
vn 0.000000 -0.866026 0.500000
vn 0.000000 -0.866026 0.500000
vn 0.000000 -0.866026 0.500000
vn 0.000000 -0.866026 0.500000
vn 0.000000 0.500000 -0.866025
vn 0.000000 0.500000 -0.866025
vn 0.000000 0.500000 -0.866025
vn 0.000000 0.500000 -0.866025
vn -1.000000 0.000000 0.000000
vn -1.000000 0.000000 0.000000
vn -1.000000 0.000000 0.000000
vn -1.000000 0.000000 0.000000
vn 1.000000 0.000000 0.000000
vn 1.000000 0.000000 0.000000
vn 1.000000 0.000000 0.000000
vn 1.000000 0.000000 0.000000
vn 0.000000 0.000000 -1.000000
vn 0.000000 0.000000 -1.000000
vn 0.000000 0.000000 -1.000000
vn 0.000000 0.000000 -1.000000
vn 0.000000 -0.500000 -0.866025
vn 0.000000 -0.500000 -0.866025
vn 0.000000 -0.500000 -0.866025
vn 0.000000 -0.500000 -0.866025
vn -1.000000 0.000000 0.000000
vn -1.000000 0.000000 0.000000
vn -1.000000 0.000000 0.000000
vn -1.000000 0.000000 0.000000
vn 0.000000 -0.500000 0.866025
vn 0.000000 -0.500000 0.866025
vn 0.000000 -0.500000 0.866025
vn 0.000000 -0.500000 0.866025
vn 0.000000 0.500000 -0.866025
vn 0.000000 0.500000 -0.866025
vn 0.000000 0.500000 -0.866025
vn 0.000000 0.500000 -0.866025
vn 1.000000 0.000000 0.000000
vn 1.000000 0.000000 0.000000
vn 1.000000 0.000000 0.000000
vn 1.000000 0.000000 0.000000
vn -1.000000 0.000000 0.000000
vn -1.000000 0.000000 0.000000
vn -1.000000 0.000000 0.000000
vn -1.000000 0.000000 0.000000
vn 0.000000 -0.500000 0.866025
vn 0.000000 -0.500000 0.866025
vn 0.000000 -0.500000 0.866025
vn 0.000000 -0.500000 0.866025
vn 0.000000 -0.866026 -0.500000
vn 0.000000 -0.866026 -0.500000
vn 0.000000 -0.866026 -0.500000
vn 0.000000 -0.866026 -0.500000
vn 0.000000 0.500000 -0.866025
vn 0.000000 0.500000 -0.866025
vn 0.000000 0.500000 -0.866025
vn 0.000000 0.500000 -0.866025
vn 0.000000 -0.500000 0.866025
vn 0.000000 -0.500000 0.866025
vn 0.000000 -0.500000 0.866025
vn 0.000000 -0.500000 0.866025
vn 0.000000 0.500000 0.866025
vn 0.000000 0.500000 0.866025
vn 0.000000 0.500000 0.866025
vn 0.000000 0.500000 0.866025
vn 0.000000 -0.866026 0.500000
vn 0.000000 -0.866026 0.500000
vn 0.000000 -0.866026 0.500000
vn 0.000000 -0.866026 0.500000
vn 0.000000 -0.500000 -0.866025
vn 0.000000 -0.500000 -0.866025
vn 0.000000 -0.500000 -0.866025
vn 0.000000 -0.500000 -0.866025
vn 0.000000 0.000000 -1.000000
vn 0.000000 0.000000 -1.000000
vn 0.000000 0.000000 -1.000000
vn 0.000000 0.000000 -1.000000
vn 0.000000 0.000000 -1.000000
vn 0.000000 0.000000 -1.000000
vn 0.000000 0.000000 -1.000000
vn 0.000000 0.000000 -1.000000
vn 0.000000 -0.866026 -0.500000
vn 0.000000 -0.866026 -0.500000
vn 0.000000 -0.866026 -0.500000
vn 0.000000 -0.866026 -0.500000
vn 1.000000 -0.000000 0.000000
vn 1.000000 -0.000000 0.000000
vn 1.000000 -0.000000 0.000000
vn 1.000000 -0.000000 0.000000
vn 1.000000 -0.000000 0.000000
vn -1.000000 -0.000000 0.000000
vn -1.000000 -0.000000 0.000000
vn -1.000000 -0.000000 0.000000
vn -1.000000 -0.000000 0.000000
vn -1.000000 -0.000000 0.000000
vn 0.000000 -0.866026 0.500000
vn 0.000000 -0.866026 0.500000
vn 0.000000 -0.866026 0.500000
vn 0.000000 -0.866026 0.500000
vn 0.000000 0.500000 0.866025
vn 0.000000 0.500000 0.866025
vn 0.000000 0.500000 0.866025
vn 0.000000 0.500000 0.866025
vn 1.000000 0.000000 0.000000
vn 1.000000 0.000000 0.000000
vn 1.000000 0.000000 0.000000
vn 1.000000 0.000000 0.000000
vn -1.000000 0.000000 0.000000
vn -1.000000 0.000000 0.000000
vn -1.000000 0.000000 0.000000
vn -1.000000 0.000000 0.000000
vn 0.000000 -0.500000 -0.866026
vn 0.000000 -0.500000 -0.866026
vn 0.000000 -0.500000 -0.866026
vn 0.000000 -0.500000 -0.866026
vn 0.000000 -0.866026 -0.500000
vn 0.000000 -0.866026 -0.500000
vn 0.000000 -0.866026 -0.500000
vn 0.000000 -0.866026 -0.500000
vn 0.000000 0.000000 -1.000000
vn 0.000000 0.000000 -1.000000
vn 0.000000 0.000000 -1.000000
vn 0.000000 0.000000 -1.000000
vn 1.000000 -0.000000 0.000000
vn 1.000000 -0.000000 0.000000
vn 1.000000 -0.000000 0.000000
vn 1.000000 -0.000000 0.000000
vn 1.000000 -0.000000 0.000000
vn 0.000000 -0.866026 0.500000
vn 0.000000 -0.866026 0.500000
vn 0.000000 -0.866026 0.500000
vn 0.000000 -0.866026 0.500000
vn -1.000000 -0.000000 0.000000
vn -1.000000 -0.000000 0.000000
vn -1.000000 -0.000000 0.000000
vn -1.000000 -0.000000 0.000000
vn -1.000000 -0.000000 0.000000
vn 0.000000 0.000000 -1.000000
vn 0.000000 0.000000 -1.000000
vn 0.000000 0.000000 -1.000000
vn 0.000000 0.000000 -1.000000
vn 0.000000 0.500000 0.866025
vn 0.000000 0.500000 0.866025
vn 0.000000 0.500000 0.866025
vn 0.000000 0.500000 0.866025
vn 1.000000 0.000000 0.000000
vn 1.000000 0.000000 0.000000
vn 1.000000 0.000000 0.000000
vn 1.000000 0.000000 0.000000
vn 0.000000 -0.866026 -0.500000
vn 0.000000 -0.866026 -0.500000
vn 0.000000 -0.866026 -0.500000
vn 0.000000 -0.866026 -0.500000
vn -1.000000 0.000000 0.000000
vn -1.000000 0.000000 0.000000
vn -1.000000 0.000000 0.000000
vn -1.000000 0.000000 0.000000
vn 0.000000 -0.500000 -0.866025
vn 0.000000 -0.500000 -0.866025
vn 0.000000 -0.500000 -0.866025
vn 0.000000 -0.500000 -0.866025
vn 0.000000 -0.866026 0.500000
vn 0.000000 -0.866026 0.500000
vn 0.000000 -0.866026 0.500000
vn 0.000000 -0.866026 0.500000
vn 0.000000 0.000000 -1.000000
vn 0.000000 0.000000 -1.000000
vn 0.000000 0.000000 -1.000000
vn 0.000000 0.000000 -1.000000
vn 0.000000 -0.866026 -0.499999
vn 0.000000 -0.866026 -0.499999
vn 0.000000 -0.866026 -0.499999
vn 0.000000 -0.866026 -0.499999
s off
g pCube20
usemtl initialShadingGroup
f 1/1/1 2/2/2 3/3/3 4/4/4
f 5/5/5 6/6/6 7/7/7 8/8/8
f 9/9/9 10/10/10 11/11/11 12/12/12
f 13/13/13 14/14/14 15/15/15 16/16/16
f 16/17/17 17/18/18 18/19/19 13/20/20
f 19/21/21 20/22/22 21/23/23 22/24/24
f 23/25/25 9/9/26 12/12/27 24/26/28
f 22/27/29 21/28/30 6/29/31 5/30/32
f 14/14/33 25/31/34 26/32/35 15/15/36
f 25/31/37 18/33/38 17/34/39 26/32/40
f 27/35/41 28/36/42 29/37/43 30/38/44
f 31/39/45 32/40/46 33/41/47 34/42/48
f 35/43/49 36/44/50 37/45/51 38/46/52
f 24/26/53 12/12/54 11/47/55 39/48/56
f 40/49/57 41/50/58 42/51/59 43/52/60
f 32/53/61 44/54/62 45/55/63 33/56/64
f 31/57/65 46/58/66 44/59/67 32/60/68
f 33/61/69 45/62/70 47/63/71 34/64/72
f 34/64/73 47/63/74 46/58/75 31/57/76
f 48/65/77 49/66/78 50/67/79 51/68/80
f 46/58/81 47/63/82 45/55/83 44/54/84
f 52/69/85 53/70/86 54/71/87 55/72/88
f 54/73/89 56/74/90 57/75/91 55/76/92
f 19/77/93 22/78/94 5/79/95 8/80/96
f 53/81/97 58/82/98 56/83/99 54/84/100
f 55/85/101 57/86/102 59/87/103 52/88/104
f 60/89/105 61/90/106 62/91/107 63/92/108
f 52/88/109 59/87/110 58/82/111 53/81/112
f 58/82/113 59/87/114 57/75/115 56/74/116
f 15/15/117 26/32/118 17/18/119 16/17/120
f 8/8/121 7/7/122 20/22/123 19/21/124
f 64/93/125 23/25/126 24/26/127 39/94/128
f 39/48/129 11/47/130 10/95/131 64/96/132
f 37/97/133 65/98/134 66/99/135 38/100/136
f 36/101/137 67/102/138 65/103/139 37/104/140
f 38/105/141 66/106/142 68/107/143 35/108/144
f 35/108/145 68/107/146 67/102/147 36/101/148
f 69/109/149 70/110/150 62/111/151 61/90/152
f 71/112/153 69/109/154 61/90/155 60/89/156
f 72/113/157 73/114/158 2/2/159 1/1/160
f 74/115/161 75/116/162 76/117/163 77/118/164
f 63/92/165 62/91/166 70/119/167 78/120/168
f 78/121/169 71/112/170 60/89/171 63/122/172
f 73/114/173 79/123/174 3/124/175 2/2/176
f 64/96/177 10/95/178 9/125/179 23/126/180
f 80/127/181 30/38/182 29/37/183 81/128/184
f 82/129/185 72/113/186 1/1/187 4/130/188
f 81/131/189 29/132/190 28/36/191 83/133/192
f 77/134/193 84/135/194 85/136/195 74/137/196
f 4/4/197 3/3/198 79/138/199 82/139/200
f 86/140/201 27/35/202 30/141/203 80/142/204
f 83/133/205 28/36/206 27/35/207 86/140/208
f 87/143/209 43/52/210 42/51/211 88/144/212
f 88/145/213 42/146/214 41/50/215 89/147/216
f 90/148/217 40/49/218 43/149/219 87/150/220
f 89/147/221 41/50/222 40/49/223 90/148/224
f 66/99/225 65/98/226 67/151/227 68/152/228
f 91/153/229 51/68/230 50/67/231 92/154/232
f 93/155/233 94/156/234 49/66/235 48/65/236
f 95/157/237 96/158/238 76/117/239 75/116/240
f 82/139/241 79/138/242 73/159/243 72/160/244
f 84/161/245 97/162/246 98/163/247 85/164/248
f 83/165/249 86/166/250 80/167/251 81/168/252
f 99/169/253 100/170/254 101/171/255 102/172/256
f 6/29/257 21/28/258 20/173/259 7/174/260
f 77/175/261 76/117/262 96/158/263 97/176/264 84/177/265
f 85/178/266 98/179/267 95/157/268 75/116/269 74/180/270
f 98/163/271 97/162/272 96/181/273 95/182/274
f 101/183/275 103/184/276 104/185/277 102/186/278
f 102/186/279 104/185/280 105/187/281 99/188/282
f 100/189/283 106/190/284 103/184/285 101/183/286
f 99/191/287 105/192/288 106/193/289 100/194/290
f 13/20/291 18/19/292 25/195/293 14/196/294
f 89/197/295 90/198/296 87/199/297 88/200/298
f 92/201/299 50/202/300 49/66/301 94/156/302 107/203/303
f 106/193/304 105/192/305 104/204/306 103/205/307
f 108/206/308 93/155/309 48/65/310 51/207/311 91/208/312
f 109/209/313 110/210/314 111/211/315 112/212/316
f 111/213/317 113/214/318 114/215/319 112/216/320
f 112/216/321 114/215/322 115/217/323 109/218/324
f 78/120/325 70/119/326 69/219/327 71/220/328
f 110/221/329 116/222/330 113/214/331 111/213/332
f 109/223/333 115/224/334 116/225/335 110/226/336
f 116/225/337 115/224/338 114/227/339 113/228/340
f 92/229/341 107/230/342 108/231/343 91/232/344
f 107/233/345 94/234/346 93/235/347 108/236/348
