# This file uses centimeters as units for non-parametric coordinates.

mtllib Road1.mtl
g default
v -11.882790 -0.322635 10.750820
v -4.566347 -0.322635 10.750820
v -11.882790 0.250171 10.750820
v -4.566347 0.250171 10.750820
v -11.882790 0.250171 -10.750820
v -4.566347 0.250171 -10.750820
v -11.882790 -0.322635 -10.750820
v -4.566347 -0.322635 -10.750820
v 4.699727 -0.322635 10.750820
v 12.016170 -0.322635 10.750820
v 4.699727 0.250171 10.750820
v 12.016170 0.250171 10.750820
v 4.699727 0.250171 -10.750820
v 12.016170 0.250171 -10.750820
v 4.699727 -0.322635 -10.750820
v 12.016170 -0.322635 -10.750820
vt 0.375000 0.000000
vt 0.625000 0.000000
vt 0.375000 0.250000
vt 0.625000 0.250000
vt 0.375000 0.500000
vt 0.625000 0.500000
vt 0.375000 0.750000
vt 0.625000 0.750000
vt 0.375000 1.000000
vt 0.625000 1.000000
vt 0.875000 0.000000
vt 0.875000 0.250000
vt 0.125000 0.000000
vt 0.125000 0.250000
vt 0.375000 0.000000
vt 0.625000 0.000000
vt 0.625000 0.250000
vt 0.375000 0.250000
vt 0.625000 0.500000
vt 0.375000 0.500000
vt 0.625000 0.750000
vt 0.375000 0.750000
vt 0.625000 1.000000
vt 0.375000 1.000000
vt 0.875000 0.000000
vt 0.875000 0.250000
vt 0.125000 0.000000
vt 0.125000 0.250000
vn 0.000000 0.000000 1.000000
vn 0.000000 0.000000 1.000000
vn 0.000000 0.000000 1.000000
vn 0.000000 0.000000 1.000000
vn 0.000000 1.000000 0.000000
vn 0.000000 1.000000 0.000000
vn 0.000000 1.000000 0.000000
vn 0.000000 1.000000 0.000000
vn 0.000000 0.000000 -1.000000
vn 0.000000 0.000000 -1.000000
vn 0.000000 0.000000 -1.000000
vn 0.000000 0.000000 -1.000000
vn 0.000000 -1.000000 0.000000
vn 0.000000 -1.000000 0.000000
vn 0.000000 -1.000000 0.000000
vn 0.000000 -1.000000 0.000000
vn 1.000000 0.000000 0.000000
vn 1.000000 0.000000 0.000000
vn 1.000000 0.000000 0.000000
vn 1.000000 0.000000 0.000000
vn -1.000000 0.000000 0.000000
vn -1.000000 0.000000 0.000000
vn -1.000000 0.000000 0.000000
vn -1.000000 0.000000 0.000000
vn 0.000000 0.000000 1.000000
vn 0.000000 0.000000 1.000000
vn 0.000000 0.000000 1.000000
vn 0.000000 0.000000 1.000000
vn 0.000000 1.000000 0.000000
vn 0.000000 1.000000 0.000000
vn 0.000000 1.000000 0.000000
vn 0.000000 1.000000 0.000000
vn 0.000000 0.000000 -1.000000
vn 0.000000 0.000000 -1.000000
vn 0.000000 0.000000 -1.000000
vn 0.000000 0.000000 -1.000000
vn 0.000000 -1.000000 0.000000
vn 0.000000 -1.000000 0.000000
vn 0.000000 -1.000000 0.000000
vn 0.000000 -1.000000 0.000000
vn 1.000000 0.000000 0.000000
vn 1.000000 0.000000 0.000000
vn 1.000000 0.000000 0.000000
vn 1.000000 0.000000 0.000000
vn -1.000000 0.000000 0.000000
vn -1.000000 0.000000 0.000000
vn -1.000000 0.000000 0.000000
vn -1.000000 0.000000 0.000000
s off
g pCube15
usemtl initialShadingGroup
f 1/1/1 2/2/2 4/4/3 3/3/4
f 3/3/5 4/4/6 6/6/7 5/5/8
f 5/5/9 6/6/10 8/8/11 7/7/12
f 7/7/13 8/8/14 2/10/15 1/9/16
f 2/2/17 8/11/18 6/12/19 4/4/20
f 7/13/21 1/1/22 3/3/23 5/14/24
f 9/15/25 10/16/26 12/17/27 11/18/28
f 11/18/29 12/17/30 14/19/31 13/20/32
f 13/20/33 14/19/34 16/21/35 15/22/36
f 15/22/37 16/21/38 10/23/39 9/24/40
f 10/16/41 16/25/42 14/26/43 12/17/44
f 15/27/45 9/15/46 11/18/47 13/28/48
g default
v 5.213023 -0.151129 10.750820
v 6.542307 -0.151129 10.750820
v 5.213023 0.421677 10.750820
v 6.542307 0.421677 10.750820
v 5.213023 0.421677 -10.750820
v 6.542307 0.421677 -10.750820
v 5.213023 -0.151129 -10.750820
v 6.542307 -0.151129 -10.750820
v -6.357585 -0.163515 10.750820
v -5.028302 -0.163515 10.750820
v -6.357585 0.409291 10.750820
v -5.028302 0.409291 10.750820
v -6.357585 0.409291 -10.750820
v -5.028302 0.409291 -10.750820
v -6.357585 -0.163515 -10.750820
v -5.028302 -0.163515 -10.750820
vt 0.375000 0.000000
vt 0.625000 0.000000
vt 0.375000 0.250000
vt 0.625000 0.250000
vt 0.375000 0.500000
vt 0.625000 0.500000
vt 0.375000 0.750000
vt 0.625000 0.750000
vt 0.375000 1.000000
vt 0.625000 1.000000
vt 0.875000 0.000000
vt 0.875000 0.250000
vt 0.125000 0.000000
vt 0.125000 0.250000
vt 0.375000 0.000000
vt 0.625000 0.000000
vt 0.625000 0.250000
vt 0.375000 0.250000
vt 0.625000 0.500000
vt 0.375000 0.500000
vt 0.625000 0.750000
vt 0.375000 0.750000
vt 0.625000 1.000000
vt 0.375000 1.000000
vt 0.875000 0.000000
vt 0.875000 0.250000
vt 0.125000 0.000000
vt 0.125000 0.250000
vn 0.000000 0.000000 1.000000
vn 0.000000 0.000000 1.000000
vn 0.000000 0.000000 1.000000
vn 0.000000 0.000000 1.000000
vn 0.000000 1.000000 0.000000
vn 0.000000 1.000000 0.000000
vn 0.000000 1.000000 0.000000
vn 0.000000 1.000000 0.000000
vn 0.000000 0.000000 -1.000000
vn 0.000000 0.000000 -1.000000
vn 0.000000 0.000000 -1.000000
vn 0.000000 0.000000 -1.000000
vn 0.000000 -1.000000 0.000000
vn 0.000000 -1.000000 0.000000
vn 0.000000 -1.000000 0.000000
vn 0.000000 -1.000000 0.000000
vn 1.000000 0.000000 0.000000
vn 1.000000 0.000000 0.000000
vn 1.000000 0.000000 0.000000
vn 1.000000 0.000000 0.000000
vn -1.000000 0.000000 0.000000
vn -1.000000 0.000000 0.000000
vn -1.000000 0.000000 0.000000
vn -1.000000 0.000000 0.000000
vn 0.000000 0.000000 1.000000
vn 0.000000 0.000000 1.000000
vn 0.000000 0.000000 1.000000
vn 0.000000 0.000000 1.000000
vn 0.000000 1.000000 0.000000
vn 0.000000 1.000000 0.000000
vn 0.000000 1.000000 0.000000
vn 0.000000 1.000000 0.000000
vn 0.000000 0.000000 -1.000000
vn 0.000000 0.000000 -1.000000
vn 0.000000 0.000000 -1.000000
vn 0.000000 0.000000 -1.000000
vn 0.000000 -1.000000 0.000000
vn 0.000000 -1.000000 0.000000
vn 0.000000 -1.000000 0.000000
vn 0.000000 -1.000000 0.000000
vn 1.000000 0.000000 0.000000
vn 1.000000 0.000000 0.000000
vn 1.000000 0.000000 0.000000
vn 1.000000 0.000000 0.000000
vn -1.000000 0.000000 0.000000
vn -1.000000 0.000000 0.000000
vn -1.000000 0.000000 0.000000
vn -1.000000 0.000000 0.000000
s off
g pCube16
usemtl initialShadingGroup
f 17/29/49 18/30/50 20/32/51 19/31/52
f 19/31/53 20/32/54 22/34/55 21/33/56
f 21/33/57 22/34/58 24/36/59 23/35/60
f 23/35/61 24/36/62 18/38/63 17/37/64
f 18/30/65 24/39/66 22/40/67 20/32/68
f 23/41/69 17/29/70 19/31/71 21/42/72
f 25/43/73 26/44/74 28/45/75 27/46/76
f 27/46/77 28/45/78 30/47/79 29/48/80
f 29/48/81 30/47/82 32/49/83 31/50/84
f 31/50/85 32/49/86 26/51/87 25/52/88
f 26/44/89 32/53/90 30/54/91 28/45/92
f 31/55/93 25/43/94 27/46/95 29/56/96
g default
v -4.144505 -0.286403 10.750821
v 4.144505 -0.286403 10.750821
v -4.144505 0.286403 10.750821
v 4.144505 0.286403 10.750821
v -4.144505 0.286403 -10.750821
v 4.144505 0.286403 -10.750821
v -4.144505 -0.286403 -10.750821
v 4.144505 -0.286403 -10.750821
vt 0.375000 0.000000
vt 0.625000 0.000000
vt 0.375000 0.250000
vt 0.625000 0.250000
vt 0.375000 0.500000
vt 0.625000 0.500000
vt 0.375000 0.750000
vt 0.625000 0.750000
vt 0.375000 1.000000
vt 0.625000 1.000000
vt 0.875000 0.000000
vt 0.875000 0.250000
vt 0.125000 0.000000
vt 0.125000 0.250000
vn 0.000000 0.000000 1.000000
vn 0.000000 0.000000 1.000000
vn 0.000000 0.000000 1.000000
vn 0.000000 0.000000 1.000000
vn 0.000000 1.000000 0.000000
vn 0.000000 1.000000 0.000000
vn 0.000000 1.000000 0.000000
vn 0.000000 1.000000 0.000000
vn 0.000000 0.000000 -1.000000
vn 0.000000 0.000000 -1.000000
vn 0.000000 0.000000 -1.000000
vn 0.000000 0.000000 -1.000000
vn 0.000000 -1.000000 0.000000
vn 0.000000 -1.000000 0.000000
vn 0.000000 -1.000000 0.000000
vn 0.000000 -1.000000 0.000000
vn 1.000000 0.000000 0.000000
vn 1.000000 0.000000 0.000000
vn 1.000000 0.000000 0.000000
vn 1.000000 0.000000 0.000000
vn -1.000000 0.000000 0.000000
vn -1.000000 0.000000 0.000000
vn -1.000000 0.000000 0.000000
vn -1.000000 0.000000 0.000000
s off
g pCube2
usemtl initialShadingGroup
f 33/57/97 34/58/98 36/60/99 35/59/100
f 35/59/101 36/60/102 38/62/103 37/61/104
f 37/61/105 38/62/106 40/64/107 39/63/108
f 39/63/109 40/64/110 34/66/111 33/65/112
f 34/58/113 40/67/114 38/68/115 36/60/116
f 39/69/117 33/57/118 35/59/119 37/70/120
g default
v -3.796560 -0.227987 10.779692
v 3.796560 -0.227987 10.779692
v -3.796560 0.227987 10.779692
v 3.796560 0.227987 10.779692
v -3.796560 0.227987 -10.779692
v 3.796560 0.227987 -10.779692
v -3.796560 -0.227987 -10.779692
v 3.796560 -0.227987 -10.779692
v 4.113136 -0.039937 -10.779692
v 4.113136 -0.039937 10.779692
v 4.031892 0.355381 -10.779692
v 4.031892 0.355381 10.779692
v -4.113136 -0.039937 -10.779692
v -4.113136 -0.039937 10.779692
v -4.031892 0.355381 10.779692
v -4.031892 0.355381 -10.779692
v 4.433239 -0.034962 -10.779692
v 4.433239 -0.034962 10.779692
v 4.345672 0.350407 -10.779692
v 4.345672 0.350407 10.779692
v -4.433239 -0.034962 -10.779692
v -4.433239 -0.034962 10.779692
v -4.345672 0.350407 10.779692
v -4.345672 0.350407 -10.779692
v 4.532401 -0.167074 -10.779692
v 4.532401 -0.167074 10.779692
v 4.532401 0.278951 -10.779692
v 4.532401 0.278951 10.779692
v -4.532401 -0.167074 -10.779692
v -4.532401 -0.167074 10.779692
v -4.532401 0.278951 10.779692
v -4.532401 0.278951 -10.779692
v 5.696487 -0.183225 -10.779692
v 5.696487 -0.183225 10.779692
v 5.696487 0.391444 -10.779692
v 5.696487 0.391444 10.779692
v -5.696487 -0.183225 -10.779692
v -5.696487 -0.183225 10.779692
v -5.696487 0.391444 10.779692
v -5.696487 0.391444 -10.779692
vt 0.375000 0.000000
vt 0.625000 0.000000
vt 0.375000 0.250000
vt 0.625000 0.250000
vt 0.375000 0.500000
vt 0.625000 0.500000
vt 0.375000 0.750000
vt 0.625000 0.750000
vt 0.375000 1.000000
vt 0.625000 1.000000
vt 0.875000 0.000000
vt 0.875000 0.250000
vt 0.125000 0.000000
vt 0.125000 0.250000
vt 0.625000 0.000000
vt 0.875000 0.000000
vt 0.875000 0.250000
vt 0.625000 0.250000
vt 0.125000 0.000000
vt 0.375000 0.000000
vt 0.375000 0.250000
vt 0.125000 0.250000
vt 0.625000 0.000000
vt 0.875000 0.000000
vt 0.875000 0.250000
vt 0.625000 0.250000
vt 0.125000 0.000000
vt 0.375000 0.000000
vt 0.375000 0.250000
vt 0.125000 0.250000
vt 0.625000 0.000000
vt 0.875000 0.000000
vt 0.875000 0.250000
vt 0.625000 0.250000
vt 0.125000 0.000000
vt 0.375000 0.000000
vt 0.375000 0.250000
vt 0.125000 0.250000
vt 0.625000 0.000000
vt 0.875000 0.000000
vt 0.875000 0.250000
vt 0.625000 0.250000
vt 0.125000 0.000000
vt 0.375000 0.000000
vt 0.375000 0.250000
vt 0.125000 0.250000
vn 0.000000 0.000000 1.000000
vn 0.000000 0.000000 1.000000
vn 0.000000 0.000000 1.000000
vn 0.000000 0.000000 1.000000
vn 0.000000 1.000000 0.000000
vn 0.000000 1.000000 0.000000
vn 0.000000 1.000000 0.000000
vn 0.000000 1.000000 0.000000
vn 0.000000 0.000000 -1.000000
vn 0.000000 0.000000 -1.000000
vn 0.000000 0.000000 -1.000000
vn 0.000000 0.000000 -1.000000
vn 0.000000 -1.000000 0.000000
vn 0.000000 -1.000000 0.000000
vn 0.000000 -1.000000 0.000000
vn 0.000000 -1.000000 0.000000
vn 1.000000 0.000000 0.000000
vn 1.000000 0.000000 0.000000
vn 1.000000 0.000000 0.000000
vn 1.000000 0.000000 0.000000
vn -1.000000 0.000000 0.000000
vn -1.000000 0.000000 0.000000
vn -1.000000 0.000000 0.000000
vn -1.000000 0.000000 0.000000
vn 0.510706 -0.859755 0.000000
vn 0.510706 -0.859755 0.000000
vn 0.510706 -0.859755 0.000000
vn 0.510706 -0.859755 0.000000
vn 0.000002 0.000000 -1.000000
vn 0.000002 0.000000 -1.000000
vn 0.000002 0.000000 -1.000000
vn 0.000002 0.000000 -1.000000
vn -0.476059 0.879413 0.000000
vn -0.476059 0.879413 0.000000
vn -0.476059 0.879413 0.000000
vn -0.476059 0.879413 0.000000
vn 0.000000 0.000000 1.000000
vn 0.000000 0.000000 1.000000
vn 0.000000 0.000000 1.000000
vn 0.000000 0.000000 1.000000
vn -0.510706 -0.859755 0.000000
vn -0.510706 -0.859755 0.000000
vn -0.510706 -0.859755 0.000000
vn -0.510706 -0.859755 0.000000
vn -0.000002 0.000000 1.000000
vn -0.000002 0.000000 1.000000
vn -0.000002 0.000000 1.000000
vn -0.000002 0.000000 1.000000
vn 0.476059 0.879413 0.000000
vn 0.476059 0.879413 0.000000
vn 0.476059 0.879413 0.000000
vn 0.476059 0.879413 0.000000
vn 0.000000 0.000000 -1.000000
vn 0.000000 0.000000 -1.000000
vn 0.000000 0.000000 -1.000000
vn 0.000000 0.000000 -1.000000
vn 0.015538 -0.999879 0.000000
vn 0.015538 -0.999879 0.000000
vn 0.015538 -0.999879 0.000000
vn 0.015538 -0.999879 0.000000
vn 0.000000 0.000000 -1.000000
vn 0.000000 0.000000 -1.000000
vn 0.000000 0.000000 -1.000000
vn 0.000000 0.000000 -1.000000
vn 0.015851 0.999874 0.000000
vn 0.015851 0.999874 0.000000
vn 0.015851 0.999874 0.000000
vn 0.015851 0.999874 0.000000
vn 0.000000 0.000000 1.000000
vn 0.000000 0.000000 1.000000
vn 0.000000 0.000000 1.000000
vn 0.000000 0.000000 1.000000
vn -0.015538 -0.999879 0.000000
vn -0.015538 -0.999879 0.000000
vn -0.015538 -0.999879 0.000000
vn -0.015538 -0.999879 0.000000
vn 0.000000 0.000000 1.000000
vn 0.000000 0.000000 1.000000
vn 0.000000 0.000000 1.000000
vn 0.000000 0.000000 1.000000
vn -0.015851 0.999874 0.000000
vn -0.015851 0.999874 0.000000
vn -0.015851 0.999874 0.000000
vn -0.015851 0.999874 0.000000
vn 0.000000 0.000000 -1.000000
vn 0.000000 0.000000 -1.000000
vn 0.000000 0.000000 -1.000000
vn 0.000000 0.000000 -1.000000
vn -0.799773 -0.600303 0.000000
vn -0.799773 -0.600303 0.000000
vn -0.799773 -0.600303 0.000000
vn -0.799773 -0.600303 0.000000
vn 0.000000 0.000000 -1.000000
vn 0.000000 0.000000 -1.000000
vn 0.000000 0.000000 -1.000000
vn 0.000000 0.000000 -1.000000
vn 0.357397 0.933952 0.000000
vn 0.357397 0.933952 0.000000
vn 0.357397 0.933952 0.000000
vn 0.357397 0.933952 0.000000
vn 0.000005 0.000000 1.000000
vn 0.000005 0.000000 1.000000
vn 0.000005 0.000000 1.000000
vn 0.000005 0.000000 1.000000
vn 0.799773 -0.600303 0.000000
vn 0.799773 -0.600303 0.000000
vn 0.799773 -0.600303 0.000000
vn 0.799773 -0.600303 0.000000
vn 0.000000 0.000000 1.000000
vn 0.000000 0.000000 1.000000
vn 0.000000 0.000000 1.000000
vn 0.000000 0.000000 1.000000
vn -0.357397 0.933952 0.000000
vn -0.357397 0.933952 0.000000
vn -0.357397 0.933952 0.000000
vn -0.357397 0.933952 0.000000
vn -0.000005 0.000000 -1.000000
vn -0.000005 0.000000 -1.000000
vn -0.000005 0.000000 -1.000000
vn -0.000005 0.000000 -1.000000
vn -0.013873 -0.999904 0.000000
vn -0.013873 -0.999904 0.000000
vn -0.013873 -0.999904 0.000000
vn -0.013873 -0.999904 0.000000
vn 0.000000 0.000000 -1.000000
vn 0.000000 0.000000 -1.000000
vn 0.000000 0.000000 -1.000000
vn 0.000000 0.000000 -1.000000
vn -0.096188 0.995363 0.000000
vn -0.096188 0.995363 0.000000
vn -0.096188 0.995363 0.000000
vn -0.096188 0.995363 0.000000
vn 0.000000 0.000000 1.000000
vn 0.000000 0.000000 1.000000
vn 0.000000 0.000000 1.000000
vn 0.000000 0.000000 1.000000
vn 0.013873 -0.999904 0.000000
vn 0.013873 -0.999904 0.000000
vn 0.013873 -0.999904 0.000000
vn 0.013873 -0.999904 0.000000
vn 0.000000 0.000000 1.000000
vn 0.000000 0.000000 1.000000
vn 0.000000 0.000000 1.000000
vn 0.000000 0.000000 1.000000
vn 0.096188 0.995363 0.000000
vn 0.096188 0.995363 0.000000
vn 0.096188 0.995363 0.000000
vn 0.096188 0.995363 0.000000
vn -0.000000 0.000000 -1.000000
vn -0.000000 0.000000 -1.000000
vn -0.000000 0.000000 -1.000000
vn -0.000000 0.000000 -1.000000
s off
g pCube1
usemtl initialShadingGroup
f 41/71/121 42/72/122 44/74/123 43/73/124
f 43/73/125 44/74/126 46/76/127 45/75/128
f 45/75/129 46/76/130 48/78/131 47/77/132
f 47/77/133 48/78/134 42/80/135 41/79/136
f 74/109/137 73/110/138 75/111/139 76/112/140
f 77/113/141 78/114/142 79/115/143 80/116/144
f 42/72/145 48/81/146 49/86/147 50/85/148
f 48/81/149 46/82/150 51/87/151 49/86/152
f 46/82/153 44/74/154 52/88/155 51/87/156
f 44/74/157 42/72/158 50/85/159 52/88/160
f 47/83/161 41/71/162 54/90/163 53/89/164
f 41/71/165 43/73/166 55/91/167 54/90/168
f 43/73/169 45/84/170 56/92/171 55/91/172
f 45/84/173 47/83/174 53/89/175 56/92/176
f 50/85/177 49/86/178 57/94/179 58/93/180
f 49/86/181 51/87/182 59/95/183 57/94/184
f 51/87/185 52/88/186 60/96/187 59/95/188
f 52/88/189 50/85/190 58/93/191 60/96/192
f 53/89/193 54/90/194 62/98/195 61/97/196
f 54/90/197 55/91/198 63/99/199 62/98/200
f 55/91/201 56/92/202 64/100/203 63/99/204
f 56/92/205 53/89/206 61/97/207 64/100/208
f 58/93/209 57/94/210 65/102/211 66/101/212
f 57/94/213 59/95/214 67/103/215 65/102/216
f 59/95/217 60/96/218 68/104/219 67/103/220
f 60/96/221 58/93/222 66/101/223 68/104/224
f 61/97/225 62/98/226 70/106/227 69/105/228
f 62/98/229 63/99/230 71/107/231 70/106/232
f 63/99/233 64/100/234 72/108/235 71/107/236
f 64/100/237 61/97/238 69/105/239 72/108/240
f 66/101/241 65/102/242 73/110/243 74/109/244
f 65/102/245 67/103/246 75/111/247 73/110/248
f 67/103/249 68/104/250 76/112/251 75/111/252
f 68/104/253 66/101/254 74/109/255 76/112/256
f 69/105/257 70/106/258 78/114/259 77/113/260
f 70/106/261 71/107/262 79/115/263 78/114/264
f 71/107/265 72/108/266 80/116/267 79/115/268
f 72/108/269 69/105/270 77/113/271 80/116/272
